<svg width="29" height="10" viewBox="0 0 29 10" fill="none" xmlns="http://www.w3.org/2000/svg">
<path d="M3.816 9.108C3.16 9.108 2.544 9.02 1.968 8.844C1.4 8.668 0.916 8.416 0.516 8.088L1.044 6.96C1.46 7.272 1.892 7.504 2.34 7.656C2.796 7.8 3.292 7.872 3.828 7.872C4.42 7.872 4.876 7.768 5.196 7.56C5.524 7.352 5.688 7.06 5.688 6.684C5.688 6.364 5.536 6.12 5.232 5.952C4.936 5.776 4.444 5.612 3.756 5.46C2.684 5.228 1.904 4.928 1.416 4.56C0.928 4.192 0.684 3.656 0.684 2.952C0.684 2.448 0.82 2 1.092 1.608C1.364 1.216 1.748 0.908 2.244 0.684C2.748 0.46 3.328 0.348 3.984 0.348C4.584 0.348 5.152 0.44 5.688 0.624C6.232 0.799999 6.676 1.048 7.02 1.368L6.504 2.496C5.744 1.888 4.904 1.584 3.984 1.584C3.432 1.584 2.996 1.7 2.676 1.932C2.356 2.156 2.196 2.464 2.196 2.856C2.196 3.192 2.336 3.448 2.616 3.624C2.904 3.8 3.392 3.964 4.08 4.116C4.792 4.284 5.372 4.468 5.82 4.668C6.268 4.86 6.612 5.112 6.852 5.424C7.092 5.728 7.212 6.112 7.212 6.576C7.212 7.088 7.076 7.536 6.804 7.92C6.532 8.296 6.14 8.588 5.628 8.796C5.116 9.004 4.512 9.108 3.816 9.108ZM13.8427 6.048H9.66666C9.69866 6.696 9.85866 7.176 10.1467 7.488C10.4427 7.792 10.8787 7.944 11.4547 7.944C12.1187 7.944 12.7347 7.728 13.3027 7.296L13.7347 8.328C13.4467 8.56 13.0907 8.748 12.6667 8.892C12.2507 9.028 11.8267 9.096 11.3947 9.096C10.4027 9.096 9.62266 8.816 9.05466 8.256C8.48666 7.696 8.20266 6.928 8.20266 5.952C8.20266 5.336 8.32666 4.788 8.57466 4.308C8.82266 3.828 9.17066 3.456 9.61866 3.192C10.0667 2.92 10.5747 2.784 11.1427 2.784C11.9747 2.784 12.6307 3.056 13.1107 3.6C13.5987 4.136 13.8427 4.876 13.8427 5.82V6.048ZM11.1787 3.864C10.7787 3.864 10.4507 3.984 10.1947 4.224C9.94666 4.456 9.78666 4.796 9.71466 5.244H12.5347C12.4867 4.788 12.3467 4.444 12.1147 4.212C11.8907 3.98 11.5787 3.864 11.1787 3.864ZM18.5809 2.784C20.0289 2.784 20.7529 3.616 20.7529 5.28V9H19.2529V5.352C19.2529 4.872 19.1609 4.524 18.9769 4.308C18.7929 4.084 18.5089 3.972 18.1249 3.972C17.6689 3.972 17.3009 4.12 17.0209 4.416C16.7409 4.704 16.6009 5.088 16.6009 5.568V9H15.1129V4.656C15.1129 4.016 15.0809 3.444 15.0169 2.94H16.4209L16.5289 3.936C16.7369 3.568 17.0169 3.284 17.3689 3.084C17.7289 2.884 18.1329 2.784 18.5809 2.784ZM28.1393 0.167999V9H26.6633V8.028C26.4793 8.364 26.2153 8.628 25.8713 8.82C25.5273 9.004 25.1353 9.096 24.6953 9.096C24.1753 9.096 23.7113 8.964 23.3033 8.7C22.8953 8.436 22.5753 8.064 22.3433 7.584C22.1193 7.096 22.0073 6.54 22.0073 5.916C22.0073 5.292 22.1193 4.744 22.3433 4.272C22.5673 3.8 22.8833 3.436 23.2913 3.18C23.6993 2.916 24.1673 2.784 24.6953 2.784C25.1273 2.784 25.5113 2.876 25.8473 3.06C26.1913 3.236 26.4553 3.488 26.6393 3.816V0.167999H28.1393ZM25.0913 7.92C25.5873 7.92 25.9713 7.748 26.2433 7.404C26.5233 7.06 26.6633 6.572 26.6633 5.94C26.6633 5.308 26.5273 4.82 26.2553 4.476C25.9833 4.132 25.5993 3.96 25.1033 3.96C24.5993 3.96 24.2073 4.132 23.9273 4.476C23.6553 4.812 23.5193 5.292 23.5193 5.916C23.5193 6.548 23.6553 7.04 23.9273 7.392C24.2073 7.744 24.5953 7.92 25.0913 7.92Z" fill="white"/>
</svg>
